<?xml version="1.0" encoding="UTF-8"?><svg xmlns="http://www.w3.org/2000/svg" xmlns:xlink="http://www.w3.org/1999/xlink" fill-opacity="1" color-rendering="auto" color-interpolation="auto" text-rendering="auto" stroke="black" stroke-linecap="square" width="750" stroke-miterlimit="10" shape-rendering="auto" stroke-opacity="1" fill="black" stroke-dasharray="none" font-weight="normal" stroke-width="1" height="210" font-family="'Dialog'" font-style="normal" stroke-linejoin="miter" font-size="12px" stroke-dashoffset="0" image-rendering="auto">
  <!--Generated by ySVG 2.6-->
  <defs id="genericDefs"/>
  <g>
    <defs id="defs1">
      <clipPath clipPathUnits="userSpaceOnUse" id="clipPath1">
        <path d="M0 0 L750 0 L750 210 L0 210 L0 0 Z"/>
      </clipPath>
      <clipPath clipPathUnits="userSpaceOnUse" id="clipPath2">
        <path d="M-26 -30 L724 -30 L724 180 L-26 180 L-26 -30 Z"/>
      </clipPath>
    </defs>
    <g fill="white" text-rendering="geometricPrecision" shape-rendering="geometricPrecision" transform="translate(26,30)" stroke="white">
      <rect x="-26" width="750" height="210" y="-30" clip-path="url(#clipPath2)" stroke="none"/>
    </g>
    <g fill="rgb(231,242,250)" text-rendering="geometricPrecision" shape-rendering="geometricPrecision" transform="matrix(1,0,0,1,26,30)" stroke="rgb(231,242,250)">
      <rect x="-0.625" width="109" height="40" y="125" clip-path="url(#clipPath2)" stroke="none"/>
    </g>
    <g text-rendering="geometricPrecision" stroke-miterlimit="1.45" shape-rendering="geometricPrecision" transform="matrix(1,0,0,1,26,30)" stroke-linecap="butt">
      <rect fill="none" x="-0.625" width="109" height="40" y="125" clip-path="url(#clipPath2)"/>
      <text x="4.9476" font-size="16px" y="149.8799" clip-path="url(#clipPath2)" font-family="'Lato'" stroke="none" xml:space="preserve">Use apptainer</text>
    </g>
    <g fill="rgb(231,242,250)" text-rendering="geometricPrecision" shape-rendering="geometricPrecision" transform="matrix(1,0,0,1,26,30)" stroke="rgb(231,242,250)">
      <rect x="97.6875" width="314.875" height="40" y="-15" clip-path="url(#clipPath2)" stroke="none"/>
    </g>
    <g text-rendering="geometricPrecision" stroke-miterlimit="1.45" shape-rendering="geometricPrecision" transform="matrix(1,0,0,1,26,30)" stroke-linecap="butt">
      <rect fill="none" x="97.6875" width="314.875" height="40" y="-15" clip-path="url(#clipPath2)"/>
      <text x="102.4389" font-size="16px" y="1.88" clip-path="url(#clipPath2)" font-family="'Lato'" stroke="none" xml:space="preserve">Use exec-command to launch the container</text>
      <text x="152.2103" font-size="16px" y="17.8798" clip-path="url(#clipPath2)" font-family="'Lato'" stroke="none" xml:space="preserve">with additional bound folders</text>
    </g>
    <g fill="rgb(255,204,153)" text-rendering="geometricPrecision" shape-rendering="geometricPrecision" transform="matrix(1,0,0,1,26,30)" stroke="rgb(255,204,153)">
      <rect x="126.125" width="258" height="40" y="55" clip-path="url(#clipPath2)" stroke="none"/>
      <rect x="133.1055" y="61.6719" clip-path="url(#clipPath2)" fill="none" width="244.0391" height="26.6562" stroke="black" stroke-miterlimit="1.6"/>
    </g>
    <g font-size="20px" stroke-linecap="butt" transform="matrix(1,0,0,1,26,30)" text-rendering="geometricPrecision" font-family="'Liberation Mono'" shape-rendering="geometricPrecision" stroke-miterlimit="1.45">
      <text x="135.1055" xml:space="preserve" y="80.3223" clip-path="url(#clipPath2)" stroke="none">exec --bind /scratch</text>
    </g>
    <g fill="rgb(204,153,255)" text-rendering="geometricPrecision" shape-rendering="geometricPrecision" transform="matrix(1,0,0,1,26,30)" stroke="rgb(204,153,255)">
      <rect x="392.375" width="139.375" height="40" y="55" clip-path="url(#clipPath2)" stroke="none"/>
      <rect x="394.0518" y="61.6719" clip-path="url(#clipPath2)" fill="none" width="136.0215" height="26.6562" stroke="black" stroke-miterlimit="1.6"/>
    </g>
    <g font-size="20px" stroke-linecap="butt" transform="matrix(1,0,0,1,26,30)" text-rendering="geometricPrecision" font-family="'Liberation Mono'" shape-rendering="geometricPrecision" stroke-miterlimit="1.45">
      <text x="396.0518" xml:space="preserve" y="80.3223" clip-path="url(#clipPath2)" stroke="none">example.sif</text>
    </g>
    <g fill="rgb(231,242,250)" text-rendering="geometricPrecision" shape-rendering="geometricPrecision" transform="matrix(1,0,0,1,26,30)" stroke="rgb(231,242,250)">
      <rect x="384.125" width="146.375" height="40" y="125" clip-path="url(#clipPath2)" stroke="none"/>
    </g>
    <g text-rendering="geometricPrecision" stroke-miterlimit="1.45" shape-rendering="geometricPrecision" transform="matrix(1,0,0,1,26,30)" stroke-linecap="butt">
      <rect fill="none" x="384.125" width="146.375" height="40" y="125" clip-path="url(#clipPath2)"/>
      <text x="393.1853" font-size="16px" y="149.8799" clip-path="url(#clipPath2)" font-family="'Lato'" stroke="none" xml:space="preserve">Use this image file</text>
    </g>
    <g fill="silver" text-rendering="geometricPrecision" shape-rendering="geometricPrecision" transform="matrix(1,0,0,1,26,30)" stroke="silver">
      <rect x="540" width="146.375" height="40" y="55" clip-path="url(#clipPath2)" stroke="none"/>
      <rect x="545.1768" y="61.6719" clip-path="url(#clipPath2)" fill="none" width="136.0215" height="26.6562" stroke="black" stroke-miterlimit="1.6"/>
    </g>
    <g font-size="20px" stroke-linecap="butt" transform="matrix(1,0,0,1,26,30)" text-rendering="geometricPrecision" font-family="'Liberation Mono'" shape-rendering="geometricPrecision" stroke-miterlimit="1.45">
      <text x="547.1768" xml:space="preserve" y="80.3223" clip-path="url(#clipPath2)" stroke="none">ls /scratch</text>
    </g>
    <g fill="rgb(231,242,250)" text-rendering="geometricPrecision" shape-rendering="geometricPrecision" transform="matrix(1,0,0,1,26,30)" stroke="rgb(231,242,250)">
      <rect x="518" width="190.375" height="40" y="-15" clip-path="url(#clipPath2)" stroke="none"/>
    </g>
    <g text-rendering="geometricPrecision" stroke-miterlimit="1.45" shape-rendering="geometricPrecision" transform="matrix(1,0,0,1,26,30)" stroke-linecap="butt">
      <rect fill="none" x="518" width="190.375" height="40" y="-15" clip-path="url(#clipPath2)"/>
      <text x="523.4526" font-size="16px" y="9.8799" clip-path="url(#clipPath2)" font-family="'Lato'" stroke="none" xml:space="preserve">Print output of this folder</text>
    </g>
    <g fill="rgb(153,204,255)" text-rendering="geometricPrecision" shape-rendering="geometricPrecision" transform="matrix(1,0,0,1,26,30)" stroke="rgb(153,204,255)">
      <rect x="-10.125" width="128" height="40" y="55" clip-path="url(#clipPath2)" stroke="none"/>
      <rect x="-2.1338" y="61.6719" clip-path="url(#clipPath2)" fill="none" width="112.0176" height="26.6562" stroke="black" stroke-miterlimit="1.6"/>
    </g>
    <g font-size="20px" stroke-linecap="butt" transform="matrix(1,0,0,1,26,30)" text-rendering="geometricPrecision" font-family="'Liberation Mono'" shape-rendering="geometricPrecision" stroke-miterlimit="1.45">
      <text x="-0.1338" xml:space="preserve" y="80.3223" clip-path="url(#clipPath2)" stroke="none">apptainer</text>
      <path fill="none" d="M255.125 25 L255.125 47" clip-path="url(#clipPath2)"/>
      <path d="M255.125 55 L260.125 43 L255.125 46 L250.125 43 Z" stroke="none" clip-path="url(#clipPath2)"/>
      <path fill="none" d="M457.5159 125 L457.7395 103.0103" clip-path="url(#clipPath2)"/>
      <path d="M457.8209 95.0107 L452.6991 106.9593 L457.7294 104.0103 L462.6986 107.061 Z" stroke="none" clip-path="url(#clipPath2)"/>
      <path fill="none" d="M613.1875 25 L613.1875 47" clip-path="url(#clipPath2)"/>
      <path d="M613.1875 55 L618.1875 43 L613.1875 46 L608.1875 43 Z" stroke="none" clip-path="url(#clipPath2)"/>
      <path fill="none" d="M53.875 125 L53.875 103" clip-path="url(#clipPath2)"/>
      <path d="M53.875 95 L48.875 107 L53.875 104 L58.875 107 Z" stroke="none" clip-path="url(#clipPath2)"/>
    </g>
  </g>
</svg>
