<?xml version="1.0" encoding="UTF-8"?><svg xmlns="http://www.w3.org/2000/svg" xmlns:xlink="http://www.w3.org/1999/xlink" fill-opacity="1" color-rendering="auto" color-interpolation="auto" text-rendering="auto" stroke="black" stroke-linecap="square" width="714" stroke-miterlimit="10" shape-rendering="auto" stroke-opacity="1" fill="black" stroke-dasharray="none" font-weight="normal" stroke-width="1" height="210" font-family="'Dialog'" font-style="normal" stroke-linejoin="miter" font-size="12px" stroke-dashoffset="0" image-rendering="auto">
  <!--Generated by ySVG 2.6-->
  <defs id="genericDefs"/>
  <g>
    <defs id="defs1">
      <clipPath clipPathUnits="userSpaceOnUse" id="clipPath1">
        <path d="M0 0 L714 0 L714 210 L0 210 L0 0 Z"/>
      </clipPath>
      <clipPath clipPathUnits="userSpaceOnUse" id="clipPath2">
        <path d="M17 -30 L731 -30 L731 180 L17 180 L17 -30 Z"/>
      </clipPath>
    </defs>
    <g fill="white" text-rendering="geometricPrecision" shape-rendering="geometricPrecision" transform="translate(-17,30)" stroke="white">
      <rect x="17" width="714" height="210" y="-30" clip-path="url(#clipPath2)" stroke="none"/>
    </g>
    <g fill="rgb(231,242,250)" text-rendering="geometricPrecision" shape-rendering="geometricPrecision" transform="matrix(1,0,0,1,-17,30)" stroke="rgb(231,242,250)">
      <rect x="47.5312" width="109" height="40" y="125" clip-path="url(#clipPath2)" stroke="none"/>
    </g>
    <g text-rendering="geometricPrecision" stroke-miterlimit="1.45" shape-rendering="geometricPrecision" transform="matrix(1,0,0,1,-17,30)" stroke-linecap="butt">
      <rect fill="none" x="47.5312" width="109" height="40" y="125" clip-path="url(#clipPath2)"/>
      <text x="53.1039" font-size="16px" y="149.8799" clip-path="url(#clipPath2)" font-family="'Lato'" stroke="none" xml:space="preserve">Use apptainer</text>
    </g>
    <g fill="rgb(231,242,250)" text-rendering="geometricPrecision" shape-rendering="geometricPrecision" transform="matrix(1,0,0,1,-17,30)" stroke="rgb(231,242,250)">
      <rect x="32.5" width="341.875" height="40" y="-15" clip-path="url(#clipPath2)" stroke="none"/>
    </g>
    <g text-rendering="geometricPrecision" stroke-miterlimit="1.45" shape-rendering="geometricPrecision" transform="matrix(1,0,0,1,-17,30)" stroke-linecap="butt">
      <rect fill="none" x="32.5" width="341.875" height="40" y="-15" clip-path="url(#clipPath2)"/>
      <text x="40.2915" font-size="16px" y="9.8799" clip-path="url(#clipPath2)" font-family="'Lato'" stroke="none" xml:space="preserve">Use build-command to build a container image</text>
    </g>
    <g fill="rgb(255,204,153)" text-rendering="geometricPrecision" shape-rendering="geometricPrecision" transform="matrix(1,0,0,1,-17,30)" stroke="rgb(255,204,153)">
      <rect x="174" width="67" height="40" y="55" clip-path="url(#clipPath2)" stroke="none"/>
      <rect x="181.4961" y="61.6719" clip-path="url(#clipPath2)" fill="none" width="52.0078" height="26.6562" stroke="black" stroke-miterlimit="1.6"/>
    </g>
    <g font-size="20px" stroke-linecap="butt" transform="matrix(1,0,0,1,-17,30)" text-rendering="geometricPrecision" font-family="'Liberation Mono'" shape-rendering="geometricPrecision" stroke-miterlimit="1.45">
      <text x="183.4961" xml:space="preserve" y="80.3223" clip-path="url(#clipPath2)" stroke="none">pull</text>
    </g>
    <g fill="rgb(204,153,255)" text-rendering="geometricPrecision" shape-rendering="geometricPrecision" transform="matrix(1,0,0,1,-17,30)" stroke="rgb(204,153,255)">
      <rect x="247" width="151.375" height="40" y="55" clip-path="url(#clipPath2)" stroke="none"/>
      <rect x="254.6768" y="61.6719" clip-path="url(#clipPath2)" fill="none" width="136.0215" height="26.6562" stroke="black" stroke-miterlimit="1.6"/>
    </g>
    <g font-size="20px" stroke-linecap="butt" transform="matrix(1,0,0,1,-17,30)" text-rendering="geometricPrecision" font-family="'Liberation Mono'" shape-rendering="geometricPrecision" stroke-miterlimit="1.45">
      <text x="256.6768" xml:space="preserve" y="80.3223" clip-path="url(#clipPath2)" stroke="none">example.sif</text>
    </g>
    <g fill="rgb(231,242,250)" text-rendering="geometricPrecision" shape-rendering="geometricPrecision" transform="matrix(1,0,0,1,-17,30)" stroke="rgb(231,242,250)">
      <rect x="241" width="163.375" height="40" y="125" clip-path="url(#clipPath2)" stroke="none"/>
    </g>
    <g text-rendering="geometricPrecision" stroke-miterlimit="1.45" shape-rendering="geometricPrecision" transform="matrix(1,0,0,1,-17,30)" stroke-linecap="butt">
      <rect fill="none" x="241" width="163.375" height="40" y="125" clip-path="url(#clipPath2)"/>
      <text x="246.0125" font-size="16px" y="149.8799" clip-path="url(#clipPath2)" font-family="'Lato'" stroke="none" xml:space="preserve">Save to this image file</text>
    </g>
    <g fill="silver" text-rendering="geometricPrecision" shape-rendering="geometricPrecision" transform="matrix(1,0,0,1,-17,30)" stroke="silver">
      <rect x="404.375" width="151.375" height="40" y="55" clip-path="url(#clipPath2)" stroke="none"/>
      <rect x="412.0518" y="61.6719" clip-path="url(#clipPath2)" fill="none" width="136.0215" height="26.6562" stroke="black" stroke-miterlimit="1.6"/>
    </g>
    <g font-size="20px" stroke-linecap="butt" transform="matrix(1,0,0,1,-17,30)" text-rendering="geometricPrecision" font-family="'Liberation Mono'" shape-rendering="geometricPrecision" stroke-miterlimit="1.45">
      <text x="414.0518" xml:space="preserve" y="80.3223" clip-path="url(#clipPath2)" stroke="none">example.def</text>
    </g>
    <g fill="rgb(231,242,250)" text-rendering="geometricPrecision" shape-rendering="geometricPrecision" transform="matrix(1,0,0,1,-17,30)" stroke="rgb(231,242,250)">
      <rect x="398.375" width="317" height="40" y="-15" clip-path="url(#clipPath2)" stroke="none"/>
    </g>
    <g text-rendering="geometricPrecision" stroke-miterlimit="1.45" shape-rendering="geometricPrecision" transform="matrix(1,0,0,1,-17,30)" stroke-linecap="butt">
      <rect fill="none" x="398.375" width="317" height="40" y="-15" clip-path="url(#clipPath2)"/>
      <text x="401.2169" font-size="16px" y="9.8799" clip-path="url(#clipPath2)" font-family="'Lato'" stroke="none" xml:space="preserve">Definition file that is used to build the image</text>
    </g>
    <g fill="rgb(153,204,255)" text-rendering="geometricPrecision" shape-rendering="geometricPrecision" transform="matrix(1,0,0,1,-17,30)" stroke="rgb(153,204,255)">
      <rect x="38.0312" width="128" height="40" y="55" clip-path="url(#clipPath2)" stroke="none"/>
      <rect x="46.0225" y="61.6719" clip-path="url(#clipPath2)" fill="none" width="112.0176" height="26.6562" stroke="black" stroke-miterlimit="1.6"/>
    </g>
    <g font-size="20px" stroke-linecap="butt" transform="matrix(1,0,0,1,-17,30)" text-rendering="geometricPrecision" font-family="'Liberation Mono'" shape-rendering="geometricPrecision" stroke-miterlimit="1.45">
      <text x="48.0225" xml:space="preserve" y="80.3223" clip-path="url(#clipPath2)" stroke="none">apptainer</text>
      <path fill="none" d="M207.5 25.0098 L207.5 47" clip-path="url(#clipPath2)"/>
      <path d="M207.5 55 L212.5 43 L207.5 46 L202.5 43 Z" stroke="none" clip-path="url(#clipPath2)"/>
      <path fill="none" d="M322.6875 125 L322.6875 103" clip-path="url(#clipPath2)"/>
      <path d="M322.6875 95 L317.6875 107 L322.6875 104 L327.6875 107 Z" stroke="none" clip-path="url(#clipPath2)"/>
      <path fill="none" d="M480.0625 24.979 L480.0625 47" clip-path="url(#clipPath2)"/>
      <path d="M480.0625 55 L485.0625 43 L480.0625 46 L475.0625 43 Z" stroke="none" clip-path="url(#clipPath2)"/>
      <path fill="none" d="M102.0312 125 L102.0312 103" clip-path="url(#clipPath2)"/>
      <path d="M102.0312 95 L97.0312 107 L102.0312 104 L107.0312 107 Z" stroke="none" clip-path="url(#clipPath2)"/>
    </g>
  </g>
</svg>
