<?xml version="1.0" encoding="UTF-8"?><svg xmlns="http://www.w3.org/2000/svg" xmlns:xlink="http://www.w3.org/1999/xlink" fill-opacity="1" color-rendering="auto" color-interpolation="auto" text-rendering="auto" stroke="black" stroke-linecap="square" width="694" stroke-miterlimit="10" shape-rendering="auto" stroke-opacity="1" fill="black" stroke-dasharray="none" font-weight="normal" stroke-width="1" height="395" font-family="'Dialog'" font-style="normal" stroke-linejoin="miter" font-size="12px" stroke-dashoffset="0" image-rendering="auto">
  <!--Generated by ySVG 2.6-->
  <defs id="genericDefs"/>
  <g>
    <defs id="defs1">
      <clipPath clipPathUnits="userSpaceOnUse" id="clipPath1">
        <path d="M0 0 L694 0 L694 395 L0 395 L0 0 Z"/>
      </clipPath>
      <clipPath clipPathUnits="userSpaceOnUse" id="clipPath2">
        <path d="M-30 188 L664 188 L664 583 L-30 583 L-30 188 Z"/>
      </clipPath>
    </defs>
    <g fill="white" text-rendering="geometricPrecision" shape-rendering="geometricPrecision" transform="translate(30,-188)" stroke="white">
      <rect x="-30" width="694" height="395" y="188" clip-path="url(#clipPath2)" stroke="none"/>
    </g>
    <g text-rendering="geometricPrecision" stroke-miterlimit="1.45" shape-rendering="geometricPrecision" transform="matrix(1,0,0,1,30,-188)" stroke-linecap="butt">
      <rect fill="none" x="431.5" width="217" height="166" y="402" clip-path="url(#clipPath2)"/>
      <text x="505.2924" font-size="16px" y="420.8798" clip-path="url(#clipPath2)" font-family="'Lato'" stroke="none" xml:space="preserve">Container</text>
      <rect fill="none" x="-14.5" width="217" height="166" y="402" clip-path="url(#clipPath2)"/>
      <text x="59.2924" font-size="16px" y="420.8798" clip-path="url(#clipPath2)" font-family="'Lato'" stroke="none" xml:space="preserve">Container</text>
    </g>
    <g fill="rgb(106,176,222)" text-rendering="geometricPrecision" shape-rendering="geometricPrecision" transform="matrix(1,0,0,1,30,-188)" stroke="rgb(106,176,222)">
      <rect x="17" width="154" height="40" y="203" clip-path="url(#clipPath2)" stroke="none"/>
    </g>
    <g text-rendering="geometricPrecision" stroke-miterlimit="1.45" shape-rendering="geometricPrecision" transform="matrix(1,0,0,1,30,-188)" stroke-linecap="butt">
      <rect fill="none" x="17" width="154" height="40" y="203" clip-path="url(#clipPath2)"/>
      <text x="36.6207" font-size="16px" y="227.8799" clip-path="url(#clipPath2)" font-family="'Lato'" stroke="none" xml:space="preserve">Home computer</text>
    </g>
    <g fill="rgb(231,242,250)" text-rendering="geometricPrecision" shape-rendering="geometricPrecision" transform="matrix(1,0,0,1,30,-188)" stroke="rgb(231,242,250)">
      <rect x="17" width="154" height="40" y="273" clip-path="url(#clipPath2)" stroke="none"/>
    </g>
    <g text-rendering="geometricPrecision" stroke-miterlimit="1.45" shape-rendering="geometricPrecision" transform="matrix(1,0,0,1,30,-188)" stroke-linecap="butt">
      <rect fill="none" x="17" width="154" height="40" y="273" clip-path="url(#clipPath2)"/>
      <text x="36.6207" font-size="16px" y="289.88" clip-path="url(#clipPath2)" font-family="'Lato'" stroke="none" xml:space="preserve">Home computer</text>
      <text x="83.2561" font-size="16px" y="305.8798" clip-path="url(#clipPath2)" font-family="'Lato'" stroke="none" xml:space="preserve">OS</text>
    </g>
    <g fill="rgb(231,242,250)" text-rendering="geometricPrecision" shape-rendering="geometricPrecision" transform="matrix(1,0,0,1,30,-188)" stroke="rgb(231,242,250)">
      <rect x="17" width="154" height="40" y="343" clip-path="url(#clipPath2)" stroke="none"/>
    </g>
    <g text-rendering="geometricPrecision" stroke-miterlimit="1.45" shape-rendering="geometricPrecision" transform="matrix(1,0,0,1,30,-188)" stroke-linecap="butt">
      <rect fill="none" x="17" width="154" height="40" y="343" clip-path="url(#clipPath2)"/>
      <text x="26.1768" font-size="16px" y="367.8799" clip-path="url(#clipPath2)" font-family="'Lato'" stroke="none" xml:space="preserve">Container software</text>
    </g>
    <g fill="rgb(106,176,222)" text-rendering="geometricPrecision" shape-rendering="geometricPrecision" transform="matrix(1,0,0,1,30,-188)" stroke="rgb(106,176,222)">
      <rect x="463" width="154" height="40" y="203" clip-path="url(#clipPath2)" stroke="none"/>
    </g>
    <g text-rendering="geometricPrecision" stroke-miterlimit="1.45" shape-rendering="geometricPrecision" transform="matrix(1,0,0,1,30,-188)" stroke-linecap="butt">
      <rect fill="none" x="463" width="154" height="40" y="203" clip-path="url(#clipPath2)"/>
      <text x="498.0605" font-size="16px" y="227.8799" clip-path="url(#clipPath2)" font-family="'Lato'" stroke="none" xml:space="preserve">HPC cluster</text>
    </g>
    <g fill="rgb(231,242,250)" text-rendering="geometricPrecision" shape-rendering="geometricPrecision" transform="matrix(1,0,0,1,30,-188)" stroke="rgb(231,242,250)">
      <rect x="463" width="154" height="40" y="273" clip-path="url(#clipPath2)" stroke="none"/>
    </g>
    <g text-rendering="geometricPrecision" stroke-miterlimit="1.45" shape-rendering="geometricPrecision" transform="matrix(1,0,0,1,30,-188)" stroke-linecap="butt">
      <rect fill="none" x="463" width="154" height="40" y="273" clip-path="url(#clipPath2)"/>
      <text x="485.2687" font-size="16px" y="297.8799" clip-path="url(#clipPath2)" font-family="'Lato'" stroke="none" xml:space="preserve">HPC cluster OS</text>
    </g>
    <g fill="rgb(231,242,250)" text-rendering="geometricPrecision" shape-rendering="geometricPrecision" transform="matrix(1,0,0,1,30,-188)" stroke="rgb(231,242,250)">
      <rect x="463" width="154" height="40" y="343" clip-path="url(#clipPath2)" stroke="none"/>
    </g>
    <g text-rendering="geometricPrecision" stroke-miterlimit="1.45" shape-rendering="geometricPrecision" transform="matrix(1,0,0,1,30,-188)" stroke-linecap="butt">
      <rect fill="none" x="463" width="154" height="40" y="343" clip-path="url(#clipPath2)"/>
      <text x="472.1768" font-size="16px" y="367.8799" clip-path="url(#clipPath2)" font-family="'Lato'" stroke="none" xml:space="preserve">Container software</text>
      <text x="218.1859" font-size="14px" y="529.27" clip-path="url(#clipPath2)" font-family="'Lato'" stroke="none" xml:space="preserve">applications are exactly the same</text>
      <text x="311.2" font-size="20px" y="491.1" clip-path="url(#clipPath2)" font-family="'Lato'" stroke="none" xml:space="preserve">=</text>
      <text x="216.2949" font-size="14px" y="449.27" clip-path="url(#clipPath2)" font-family="'Lato'" stroke="none" xml:space="preserve">Because containers are the same</text>
    </g>
    <g fill="rgb(231,242,250)" text-rendering="geometricPrecision" shape-rendering="geometricPrecision" transform="matrix(1,0,0,1,30,-188)" stroke="rgb(231,242,250)">
      <rect x="17" width="154" height="40" y="431" clip-path="url(#clipPath2)" stroke="none"/>
    </g>
    <g text-rendering="geometricPrecision" stroke-miterlimit="1.45" shape-rendering="geometricPrecision" transform="matrix(1,0,0,1,30,-188)" stroke-linecap="butt">
      <rect fill="none" x="17" width="154" height="40" y="431" clip-path="url(#clipPath2)"/>
      <text x="39.5927" font-size="16px" y="455.8799" clip-path="url(#clipPath2)" font-family="'Lato'" stroke="none" xml:space="preserve">OS in container</text>
    </g>
    <g fill="rgb(231,242,250)" text-rendering="geometricPrecision" shape-rendering="geometricPrecision" transform="matrix(1,0,0,1,30,-188)" stroke="rgb(231,242,250)">
      <rect x="17" width="154" height="40" y="501" clip-path="url(#clipPath2)" stroke="none"/>
    </g>
    <g text-rendering="geometricPrecision" stroke-miterlimit="1.45" shape-rendering="geometricPrecision" transform="matrix(1,0,0,1,30,-188)" stroke-linecap="butt">
      <rect fill="none" x="17" width="154" height="40" y="501" clip-path="url(#clipPath2)"/>
      <text x="54.2245" font-size="16px" y="525.8799" clip-path="url(#clipPath2)" font-family="'Lato'" stroke="none" xml:space="preserve">Application</text>
    </g>
    <g fill="rgb(231,242,250)" text-rendering="geometricPrecision" shape-rendering="geometricPrecision" transform="matrix(1,0,0,1,30,-188)" stroke="rgb(231,242,250)">
      <rect x="463" width="154" height="40" y="431" clip-path="url(#clipPath2)" stroke="none"/>
    </g>
    <g text-rendering="geometricPrecision" stroke-miterlimit="1.45" shape-rendering="geometricPrecision" transform="matrix(1,0,0,1,30,-188)" stroke-linecap="butt">
      <rect fill="none" x="463" width="154" height="40" y="431" clip-path="url(#clipPath2)"/>
      <text x="485.5927" font-size="16px" y="455.8799" clip-path="url(#clipPath2)" font-family="'Lato'" stroke="none" xml:space="preserve">OS in container</text>
    </g>
    <g fill="rgb(231,242,250)" text-rendering="geometricPrecision" shape-rendering="geometricPrecision" transform="matrix(1,0,0,1,30,-188)" stroke="rgb(231,242,250)">
      <rect x="463" width="154" height="40" y="501" clip-path="url(#clipPath2)" stroke="none"/>
    </g>
    <g text-rendering="geometricPrecision" stroke-miterlimit="1.45" shape-rendering="geometricPrecision" transform="matrix(1,0,0,1,30,-188)" stroke-linecap="butt">
      <rect fill="none" x="463" width="154" height="40" y="501" clip-path="url(#clipPath2)"/>
      <text x="500.2245" font-size="16px" y="525.8799" clip-path="url(#clipPath2)" font-family="'Lato'" stroke="none" xml:space="preserve">Application</text>
      <path fill="none" stroke-dasharray="12,4" d="M94 243 L94 273" stroke-width="2" clip-path="url(#clipPath2)"/>
      <path fill="none" stroke-dasharray="12,4" d="M94 313 L94 343" stroke-width="2" clip-path="url(#clipPath2)"/>
      <path fill="none" stroke-dasharray="12,4" d="M94 383 L94 402" stroke-width="2" clip-path="url(#clipPath2)"/>
      <path fill="none" stroke-dasharray="12,4" d="M540 243 L540 273" stroke-width="2" clip-path="url(#clipPath2)"/>
      <path fill="none" stroke-dasharray="12,4" d="M540 313 L540 343" stroke-width="2" clip-path="url(#clipPath2)"/>
      <path fill="none" stroke-dasharray="12,4" d="M540 383 L540 402" stroke-width="2" clip-path="url(#clipPath2)"/>
      <path fill="none" d="M291.5 485 L210.5 485" clip-path="url(#clipPath2)"/>
      <path d="M202.5 485 L214.5 490 L211.5 485 L214.5 480 Z" clip-path="url(#clipPath2)" stroke="none"/>
      <path fill="none" d="M342.5 485 L423.5 485" clip-path="url(#clipPath2)"/>
      <path d="M431.5 485 L419.5 480 L422.5 485 L419.5 490 Z" clip-path="url(#clipPath2)" stroke="none"/>
      <path fill="none" stroke-dasharray="12,4" d="M94 471 L94 501" stroke-width="2" clip-path="url(#clipPath2)"/>
      <path fill="none" stroke-dasharray="12,4" d="M540 471 L540 501" stroke-width="2" clip-path="url(#clipPath2)"/>
    </g>
  </g>
</svg>
