<?xml version="1.0" encoding="UTF-8"?><svg xmlns="http://www.w3.org/2000/svg" xmlns:xlink="http://www.w3.org/1999/xlink" fill-opacity="1" color-rendering="auto" color-interpolation="auto" text-rendering="auto" stroke="black" stroke-linecap="square" width="739" stroke-miterlimit="10" shape-rendering="auto" stroke-opacity="1" fill="black" stroke-dasharray="none" font-weight="normal" stroke-width="1" height="470" font-family="'Dialog'" font-style="normal" stroke-linejoin="miter" font-size="12px" stroke-dashoffset="0" image-rendering="auto">
  <!--Generated by ySVG 2.6-->
  <defs id="genericDefs"/>
  <g>
    <defs id="defs1">
      <clipPath clipPathUnits="userSpaceOnUse" id="clipPath1">
        <path d="M0 0 L739 0 L739 470 L0 470 L0 0 Z"/>
      </clipPath>
      <clipPath clipPathUnits="userSpaceOnUse" id="clipPath2">
        <path d="M-30 270 L709 270 L709 740 L-30 740 L-30 270 Z"/>
      </clipPath>
    </defs>
    <g fill="white" text-rendering="geometricPrecision" shape-rendering="geometricPrecision" transform="translate(30,-270)" stroke="white">
      <rect x="-30" width="739" height="470" y="270" clip-path="url(#clipPath2)" stroke="none"/>
    </g>
    <g text-rendering="geometricPrecision" stroke-miterlimit="1.45" shape-rendering="geometricPrecision" transform="matrix(1,0,0,1,30,-270)" stroke-linecap="butt">
      <rect fill="none" x="526" width="168" height="361.75" y="285" clip-path="url(#clipPath2)"/>
      <text x="537.6849" font-size="16px" y="303.8798" clip-path="url(#clipPath2)" font-family="'Lato'" stroke="none" xml:space="preserve">Container filesystem</text>
      <text x="7.9211" font-size="16px" y="303.8798" clip-path="url(#clipPath2)" font-family="'Lato'" stroke="none" xml:space="preserve">Host machine filesystem</text>
    </g>
    <g fill="rgb(153,204,255)" text-rendering="geometricPrecision" shape-rendering="geometricPrecision" transform="matrix(1,0,0,1,30,-270)" stroke="rgb(153,204,255)">
      <rect x="64.5" width="69" height="40" y="482" clip-path="url(#clipPath2)" stroke="none"/>
    </g>
    <g text-rendering="geometricPrecision" stroke-miterlimit="1.45" shape-rendering="geometricPrecision" transform="matrix(1,0,0,1,30,-270)" stroke-linecap="butt">
      <rect fill="none" x="64.5" width="69" height="40" y="482" clip-path="url(#clipPath2)"/>
      <text x="95.384" font-size="16px" y="506.8799" clip-path="url(#clipPath2)" font-family="'Lato'" stroke="none" xml:space="preserve">/</text>
    </g>
    <g fill="rgb(231,242,250)" text-rendering="geometricPrecision" shape-rendering="geometricPrecision" transform="matrix(1,0,0,1,30,-270)" stroke="rgb(231,242,250)">
      <rect x="64.5" width="69" height="40" y="329" clip-path="url(#clipPath2)" stroke="none"/>
    </g>
    <g text-rendering="geometricPrecision" stroke-miterlimit="1.45" shape-rendering="geometricPrecision" transform="matrix(1,0,0,1,30,-270)" stroke-linecap="butt">
      <rect fill="none" x="64.5" width="69" height="40" y="329" clip-path="url(#clipPath2)"/>
      <text x="69.8004" font-size="16px" y="353.8799" clip-path="url(#clipPath2)" font-family="'Lato'" stroke="none" xml:space="preserve">$HOME</text>
      <text x="218.4117" font-size="16px" y="350.3799" clip-path="url(#clipPath2)" font-family="'Lato'" stroke="none" xml:space="preserve">$HOME folder is bound into the image</text>
    </g>
    <g fill="rgb(231,242,250)" text-rendering="geometricPrecision" shape-rendering="geometricPrecision" transform="matrix(1,0,0,1,30,-270)" stroke="rgb(231,242,250)">
      <rect x="64.5" width="69" height="40" y="380" clip-path="url(#clipPath2)" stroke="none"/>
    </g>
    <g text-rendering="geometricPrecision" stroke-miterlimit="1.45" shape-rendering="geometricPrecision" transform="matrix(1,0,0,1,30,-270)" stroke-linecap="butt">
      <rect fill="none" x="64.5" width="69" height="40" y="380" clip-path="url(#clipPath2)"/>
      <text x="74.6483" font-size="16px" y="404.8799" clip-path="url(#clipPath2)" font-family="'Lato'" stroke="none" xml:space="preserve">$CWD</text>
    </g>
    <g fill="rgb(153,204,255)" text-rendering="geometricPrecision" shape-rendering="geometricPrecision" transform="matrix(1,0,0,1,30,-270)" stroke="rgb(153,204,255)">
      <rect x="64.5" width="69" height="40" y="533" clip-path="url(#clipPath2)" stroke="none"/>
    </g>
    <g text-rendering="geometricPrecision" stroke-miterlimit="1.45" shape-rendering="geometricPrecision" transform="matrix(1,0,0,1,30,-270)" stroke-linecap="butt">
      <rect fill="none" x="64.5" width="69" height="40" y="533" clip-path="url(#clipPath2)"/>
      <text x="84.5482" font-size="16px" y="557.8799" clip-path="url(#clipPath2)" font-family="'Lato'" stroke="none" xml:space="preserve">/usr</text>
    </g>
    <g fill="rgb(153,204,255)" text-rendering="geometricPrecision" shape-rendering="geometricPrecision" transform="matrix(1,0,0,1,30,-270)" stroke="rgb(153,204,255)">
      <rect x="64.5" width="69" height="40" y="584" clip-path="url(#clipPath2)" stroke="none"/>
    </g>
    <g text-rendering="geometricPrecision" stroke-miterlimit="1.45" shape-rendering="geometricPrecision" transform="matrix(1,0,0,1,30,-270)" stroke-linecap="butt">
      <rect fill="none" x="64.5" width="69" height="40" y="584" clip-path="url(#clipPath2)"/>
      <text x="83.4962" font-size="16px" y="608.8799" clip-path="url(#clipPath2)" font-family="'Lato'" stroke="none" xml:space="preserve">/opt</text>
    </g>
    <g fill="rgb(204,255,204)" text-rendering="geometricPrecision" shape-rendering="geometricPrecision" transform="matrix(1,0,0,1,30,-270)" stroke="rgb(204,255,204)">
      <rect x="64.5" width="69" height="40" y="685" clip-path="url(#clipPath2)" stroke="none"/>
    </g>
    <g text-rendering="geometricPrecision" stroke-miterlimit="1.45" shape-rendering="geometricPrecision" transform="matrix(1,0,0,1,30,-270)" stroke-linecap="butt">
      <rect fill="none" x="64.5" width="69" height="40" y="685" clip-path="url(#clipPath2)"/>
      <text x="70.0604" font-size="16px" y="709.8799" clip-path="url(#clipPath2)" font-family="'Lato'" stroke="none" xml:space="preserve">/scratch</text>
    </g>
    <g fill="rgb(204,255,204)" text-rendering="geometricPrecision" shape-rendering="geometricPrecision" transform="matrix(1,0,0,1,30,-270)" stroke="rgb(204,255,204)">
      <rect x="64.5" width="69" height="40" y="634.5" clip-path="url(#clipPath2)" stroke="none"/>
    </g>
    <g text-rendering="geometricPrecision" stroke-miterlimit="1.45" shape-rendering="geometricPrecision" transform="matrix(1,0,0,1,30,-270)" stroke-linecap="butt">
      <rect fill="none" x="64.5" width="69" height="40" y="634.5" clip-path="url(#clipPath2)"/>
      <text x="88.8041" font-size="16px" y="659.3799" clip-path="url(#clipPath2)" font-family="'Lato'" stroke="none" xml:space="preserve">/m</text>
    </g>
    <g fill="rgb(204,153,255)" text-rendering="geometricPrecision" shape-rendering="geometricPrecision" transform="matrix(1,0,0,1,30,-270)" stroke="rgb(204,153,255)">
      <rect x="576" width="69" height="40" y="482" clip-path="url(#clipPath2)" stroke="none"/>
    </g>
    <g text-rendering="geometricPrecision" stroke-miterlimit="1.45" shape-rendering="geometricPrecision" transform="matrix(1,0,0,1,30,-270)" stroke-linecap="butt">
      <rect fill="none" x="576" width="69" height="40" y="482" clip-path="url(#clipPath2)"/>
      <text x="606.884" font-size="16px" y="506.8799" clip-path="url(#clipPath2)" font-family="'Lato'" stroke="none" xml:space="preserve">/</text>
    </g>
    <g fill="rgb(231,242,250)" text-rendering="geometricPrecision" shape-rendering="geometricPrecision" transform="matrix(1,0,0,1,30,-270)" stroke="rgb(231,242,250)">
      <rect x="576" width="69" height="40" y="329" clip-path="url(#clipPath2)" stroke="none"/>
    </g>
    <g text-rendering="geometricPrecision" stroke-miterlimit="1.45" shape-rendering="geometricPrecision" transform="matrix(1,0,0,1,30,-270)" stroke-linecap="butt">
      <rect fill="none" x="576" width="69" height="40" y="329" clip-path="url(#clipPath2)"/>
      <text x="581.3004" font-size="16px" y="353.8799" clip-path="url(#clipPath2)" font-family="'Lato'" stroke="none" xml:space="preserve">$HOME</text>
    </g>
    <g fill="rgb(231,242,250)" text-rendering="geometricPrecision" shape-rendering="geometricPrecision" transform="matrix(1,0,0,1,30,-270)" stroke="rgb(231,242,250)">
      <rect x="576" width="69" height="40" y="380" clip-path="url(#clipPath2)" stroke="none"/>
    </g>
    <g text-rendering="geometricPrecision" stroke-miterlimit="1.45" shape-rendering="geometricPrecision" transform="matrix(1,0,0,1,30,-270)" stroke-linecap="butt">
      <rect fill="none" x="576" width="69" height="40" y="380" clip-path="url(#clipPath2)"/>
      <text x="586.1483" font-size="16px" y="404.8799" clip-path="url(#clipPath2)" font-family="'Lato'" stroke="none" xml:space="preserve">$CWD</text>
    </g>
    <g fill="rgb(204,153,255)" text-rendering="geometricPrecision" shape-rendering="geometricPrecision" transform="matrix(1,0,0,1,30,-270)" stroke="rgb(204,153,255)">
      <rect x="576" width="69" height="40" y="533" clip-path="url(#clipPath2)" stroke="none"/>
    </g>
    <g text-rendering="geometricPrecision" stroke-miterlimit="1.45" shape-rendering="geometricPrecision" transform="matrix(1,0,0,1,30,-270)" stroke-linecap="butt">
      <rect fill="none" x="576" width="69" height="40" y="533" clip-path="url(#clipPath2)"/>
      <text x="596.0482" font-size="16px" y="557.8799" clip-path="url(#clipPath2)" font-family="'Lato'" stroke="none" xml:space="preserve">/usr</text>
    </g>
    <g fill="rgb(204,153,255)" text-rendering="geometricPrecision" shape-rendering="geometricPrecision" transform="matrix(1,0,0,1,30,-270)" stroke="rgb(204,153,255)">
      <rect x="576" width="69" height="40" y="584" clip-path="url(#clipPath2)" stroke="none"/>
    </g>
    <g text-rendering="geometricPrecision" stroke-miterlimit="1.45" shape-rendering="geometricPrecision" transform="matrix(1,0,0,1,30,-270)" stroke-linecap="butt">
      <rect fill="none" x="576" width="69" height="40" y="584" clip-path="url(#clipPath2)"/>
      <text x="594.9962" font-size="16px" y="608.8799" clip-path="url(#clipPath2)" font-family="'Lato'" stroke="none" xml:space="preserve">/opt</text>
      <text x="264.8591" font-size="16px" y="393.38" clip-path="url(#clipPath2)" font-family="'Lato'" stroke="none" xml:space="preserve">current working directory</text>
      <text x="272.551" font-size="16px" y="409.3798" clip-path="url(#clipPath2)" font-family="'Lato'" stroke="none" xml:space="preserve">is bound into the image</text>
      <text x="241.0194" font-size="16px" y="541.8801" clip-path="url(#clipPath2)" font-family="'Lato'" stroke="none" xml:space="preserve">Operating systems and software</text>
      <text x="267.1471" font-size="16px" y="557.8799" clip-path="url(#clipPath2)" font-family="'Lato'" stroke="none" xml:space="preserve">installations are different</text>
      <text x="256.4032" font-size="16px" y="573.8798" clip-path="url(#clipPath2)" font-family="'Lato'" stroke="none" xml:space="preserve">between host and container</text>
      <text x="202.4439" font-size="16px" y="688.3799" clip-path="url(#clipPath2)" font-family="'Lato'" stroke="none" xml:space="preserve">Network drives are not mounted by default</text>
    </g>
    <g fill="rgb(231,242,250)" text-rendering="geometricPrecision" shape-rendering="geometricPrecision" transform="matrix(1,0,0,1,30,-270)" stroke="rgb(231,242,250)">
      <rect x="64.5" width="69" height="40" y="431" clip-path="url(#clipPath2)" stroke="none"/>
    </g>
    <g text-rendering="geometricPrecision" stroke-miterlimit="1.45" shape-rendering="geometricPrecision" transform="matrix(1,0,0,1,30,-270)" stroke-linecap="butt">
      <rect fill="none" x="64.5" width="69" height="40" y="431" clip-path="url(#clipPath2)"/>
      <text x="81.4522" font-size="16px" y="455.8799" clip-path="url(#clipPath2)" font-family="'Lato'" stroke="none" xml:space="preserve">/tmp</text>
    </g>
    <g fill="rgb(231,242,250)" text-rendering="geometricPrecision" shape-rendering="geometricPrecision" transform="matrix(1,0,0,1,30,-270)" stroke="rgb(231,242,250)">
      <rect x="576.5" width="69" height="40" y="431" clip-path="url(#clipPath2)" stroke="none"/>
    </g>
    <g text-rendering="geometricPrecision" stroke-miterlimit="1.45" shape-rendering="geometricPrecision" transform="matrix(1,0,0,1,30,-270)" stroke-linecap="butt">
      <rect fill="none" x="576.5" width="69" height="40" y="431" clip-path="url(#clipPath2)"/>
      <text x="593.4522" font-size="16px" y="455.8799" clip-path="url(#clipPath2)" font-family="'Lato'" stroke="none" xml:space="preserve">/tmp</text>
      <text x="253.2053" font-size="16px" y="452.3799" clip-path="url(#clipPath2)" font-family="'Lato'" stroke="none" xml:space="preserve">/tmp is bound into the image</text>
      <path fill="none" d="M141.4993 348.4184 L195.1257 347.6845" clip-path="url(#clipPath2)"/>
      <path d="M133.5 348.5279 L145.5673 353.3632 L142.4992 348.4047 L145.4305 343.3641 Z" clip-path="url(#clipPath2)" stroke="none"/>
      <path d="M203.125 347.575 L191.0577 342.7397 L194.1258 347.6982 L191.1946 352.7388 Z" clip-path="url(#clipPath2)" stroke="none"/>
      <path fill="none" d="M514.3743 347.6845 L568.0007 348.4184" clip-path="url(#clipPath2)"/>
      <path d="M506.375 347.575 L518.3055 352.7388 L515.3742 347.6982 L518.4423 342.7397 Z" clip-path="url(#clipPath2)" stroke="none"/>
      <path d="M576 348.5279 L564.0695 343.3641 L567.0009 348.4047 L563.9327 353.3632 Z" clip-path="url(#clipPath2)" stroke="none"/>
      <path fill="none" d="M141.4993 399.4184 L195.1257 398.6845" clip-path="url(#clipPath2)"/>
      <path d="M133.5 399.5279 L145.5673 404.3632 L142.4992 399.4047 L145.4305 394.3641 Z" clip-path="url(#clipPath2)" stroke="none"/>
      <path d="M203.125 398.575 L191.0577 393.7397 L194.1258 398.6982 L191.1946 403.7388 Z" clip-path="url(#clipPath2)" stroke="none"/>
      <path fill="none" d="M514.3743 398.6845 L568.0007 399.4184" clip-path="url(#clipPath2)"/>
      <path d="M506.375 398.575 L518.3055 403.7388 L515.3742 398.6982 L518.4423 393.7397 Z" clip-path="url(#clipPath2)" stroke="none"/>
      <path d="M576 399.5279 L564.0695 394.3641 L567.0009 399.4047 L563.9327 404.3632 Z" clip-path="url(#clipPath2)" stroke="none"/>
      <path fill="none" d="M141.4993 450.4189 L195.3757 449.6824" clip-path="url(#clipPath2)"/>
      <path d="M133.5 450.5283 L145.5672 455.3638 L142.4992 450.4053 L145.4305 445.3647 Z" clip-path="url(#clipPath2)" stroke="none"/>
      <path d="M203.375 449.573 L191.3078 444.7375 L194.3758 449.696 L191.4445 454.7366 Z" clip-path="url(#clipPath2)" stroke="none"/>
      <path fill="none" d="M514.6243 449.6824 L568.5007 450.4189" clip-path="url(#clipPath2)"/>
      <path d="M506.625 449.573 L518.5555 454.7366 L515.6242 449.696 L518.6923 444.7375 Z" clip-path="url(#clipPath2)" stroke="none"/>
      <path d="M576.5 450.5283 L564.5695 445.3647 L567.5009 450.4053 L564.4327 455.3638 Z" clip-path="url(#clipPath2)" stroke="none"/>
    </g>
  </g>
</svg>
