<?xml version="1.0" encoding="UTF-8"?><svg xmlns="http://www.w3.org/2000/svg" xmlns:xlink="http://www.w3.org/1999/xlink" fill-opacity="1" color-rendering="auto" color-interpolation="auto" text-rendering="auto" stroke="black" stroke-linecap="square" width="685" stroke-miterlimit="10" shape-rendering="auto" stroke-opacity="1" fill="black" stroke-dasharray="none" font-weight="normal" stroke-width="1" height="210" font-family="'Dialog'" font-style="normal" stroke-linejoin="miter" font-size="12px" stroke-dashoffset="0" image-rendering="auto">
  <!--Generated by ySVG 2.6-->
  <defs id="genericDefs"/>
  <g>
    <defs id="defs1">
      <clipPath clipPathUnits="userSpaceOnUse" id="clipPath1">
        <path d="M0 0 L685 0 L685 210 L0 210 L0 0 Z"/>
      </clipPath>
      <clipPath clipPathUnits="userSpaceOnUse" id="clipPath2">
        <path d="M23 -30 L708 -30 L708 180 L23 180 L23 -30 Z"/>
      </clipPath>
    </defs>
    <g fill="white" text-rendering="geometricPrecision" shape-rendering="geometricPrecision" transform="translate(-23,30)" stroke="white">
      <rect x="23" width="685" height="210" y="-30" clip-path="url(#clipPath2)" stroke="none"/>
    </g>
    <g fill="rgb(231,242,250)" text-rendering="geometricPrecision" shape-rendering="geometricPrecision" transform="matrix(1,0,0,1,-23,30)" stroke="rgb(231,242,250)">
      <rect x="47.5312" width="109" height="40" y="125" clip-path="url(#clipPath2)" stroke="none"/>
    </g>
    <g text-rendering="geometricPrecision" stroke-miterlimit="1.45" shape-rendering="geometricPrecision" transform="matrix(1,0,0,1,-23,30)" stroke-linecap="butt">
      <rect fill="none" x="47.5312" width="109" height="40" y="125" clip-path="url(#clipPath2)"/>
      <text x="53.1039" font-size="16px" y="149.8799" clip-path="url(#clipPath2)" font-family="'Lato'" stroke="none" xml:space="preserve">Use apptainer</text>
    </g>
    <g fill="rgb(231,242,250)" text-rendering="geometricPrecision" shape-rendering="geometricPrecision" transform="matrix(1,0,0,1,-23,30)" stroke="rgb(231,242,250)">
      <rect x="47.5" width="314.875" height="40" y="-15" clip-path="url(#clipPath2)" stroke="none"/>
    </g>
    <g text-rendering="geometricPrecision" stroke-miterlimit="1.45" shape-rendering="geometricPrecision" transform="matrix(1,0,0,1,-23,30)" stroke-linecap="butt">
      <rect fill="none" x="47.5" width="314.875" height="40" y="-15" clip-path="url(#clipPath2)"/>
      <text x="52.2514" font-size="16px" y="9.8799" clip-path="url(#clipPath2)" font-family="'Lato'" stroke="none" xml:space="preserve">Use exec-command to launch the container</text>
    </g>
    <g fill="rgb(255,204,153)" text-rendering="geometricPrecision" shape-rendering="geometricPrecision" transform="matrix(1,0,0,1,-23,30)" stroke="rgb(255,204,153)">
      <rect x="174" width="67" height="40" y="55" clip-path="url(#clipPath2)" stroke="none"/>
      <rect x="181.4961" y="61.6719" clip-path="url(#clipPath2)" fill="none" width="52.0078" height="26.6562" stroke="black" stroke-miterlimit="1.6"/>
    </g>
    <g font-size="20px" stroke-linecap="butt" transform="matrix(1,0,0,1,-23,30)" text-rendering="geometricPrecision" font-family="'Liberation Mono'" shape-rendering="geometricPrecision" stroke-miterlimit="1.45">
      <text x="183.4961" xml:space="preserve" y="80.3223" clip-path="url(#clipPath2)" stroke="none">exec</text>
    </g>
    <g fill="rgb(204,153,255)" text-rendering="geometricPrecision" shape-rendering="geometricPrecision" transform="matrix(1,0,0,1,-23,30)" stroke="rgb(204,153,255)">
      <rect x="247" width="139.375" height="40" y="55" clip-path="url(#clipPath2)" stroke="none"/>
      <rect x="254.6777" y="61.6719" clip-path="url(#clipPath2)" fill="none" width="124.0195" height="26.6562" stroke="black" stroke-miterlimit="1.6"/>
    </g>
    <g font-size="20px" stroke-linecap="butt" transform="matrix(1,0,0,1,-23,30)" text-rendering="geometricPrecision" font-family="'Liberation Mono'" shape-rendering="geometricPrecision" stroke-miterlimit="1.45">
      <text x="256.6777" xml:space="preserve" y="80.3223" clip-path="url(#clipPath2)" stroke="none">python.sif</text>
    </g>
    <g fill="rgb(231,242,250)" text-rendering="geometricPrecision" shape-rendering="geometricPrecision" transform="matrix(1,0,0,1,-23,30)" stroke="rgb(231,242,250)">
      <rect x="240" width="146.375" height="40" y="125" clip-path="url(#clipPath2)" stroke="none"/>
    </g>
    <g text-rendering="geometricPrecision" stroke-miterlimit="1.45" shape-rendering="geometricPrecision" transform="matrix(1,0,0,1,-23,30)" stroke-linecap="butt">
      <rect fill="none" x="240" width="146.375" height="40" y="125" clip-path="url(#clipPath2)"/>
      <text x="249.0603" font-size="16px" y="149.8799" clip-path="url(#clipPath2)" font-family="'Lato'" stroke="none" xml:space="preserve">Use this image file</text>
    </g>
    <g fill="silver" text-rendering="geometricPrecision" shape-rendering="geometricPrecision" transform="matrix(1,0,0,1,-23,30)" stroke="silver">
      <rect x="392.375" width="294" height="40" y="55" clip-path="url(#clipPath2)" stroke="none"/>
      <rect x="399.3525" y="61.6719" clip-path="url(#clipPath2)" fill="none" width="280.0449" height="26.6562" stroke="black" stroke-miterlimit="1.6"/>
    </g>
    <g font-size="20px" stroke-linecap="butt" transform="matrix(1,0,0,1,-23,30)" text-rendering="geometricPrecision" font-family="'Liberation Mono'" shape-rendering="geometricPrecision" stroke-miterlimit="1.45">
      <text x="401.3525" xml:space="preserve" y="80.3223" clip-path="url(#clipPath2)" stroke="none">cat /etc/debian_version</text>
    </g>
    <g fill="rgb(231,242,250)" text-rendering="geometricPrecision" shape-rendering="geometricPrecision" transform="matrix(1,0,0,1,-23,30)" stroke="rgb(231,242,250)">
      <rect x="386.375" width="306" height="40" y="-15" clip-path="url(#clipPath2)" stroke="none"/>
    </g>
    <g text-rendering="geometricPrecision" stroke-miterlimit="1.45" shape-rendering="geometricPrecision" transform="matrix(1,0,0,1,-23,30)" stroke-linecap="butt">
      <rect fill="none" x="386.375" width="306" height="40" y="-15" clip-path="url(#clipPath2)"/>
      <text x="392.8448" font-size="16px" y="9.8799" clip-path="url(#clipPath2)" font-family="'Lato'" stroke="none" xml:space="preserve">Run these commands inside the container</text>
    </g>
    <g fill="rgb(153,204,255)" text-rendering="geometricPrecision" shape-rendering="geometricPrecision" transform="matrix(1,0,0,1,-23,30)" stroke="rgb(153,204,255)">
      <rect x="38.0312" width="128" height="40" y="55" clip-path="url(#clipPath2)" stroke="none"/>
      <rect x="46.0225" y="61.6719" clip-path="url(#clipPath2)" fill="none" width="112.0176" height="26.6562" stroke="black" stroke-miterlimit="1.6"/>
    </g>
    <g font-size="20px" stroke-linecap="butt" transform="matrix(1,0,0,1,-23,30)" text-rendering="geometricPrecision" font-family="'Liberation Mono'" shape-rendering="geometricPrecision" stroke-miterlimit="1.45">
      <text x="48.0225" xml:space="preserve" y="80.3223" clip-path="url(#clipPath2)" stroke="none">apptainer</text>
      <path fill="none" d="M205.6696 25 L206.4752 47.0054" clip-path="url(#clipPath2)"/>
      <path d="M206.7679 55 L211.3255 42.8251 L206.4386 46.006 L201.3322 43.1909 Z" stroke="none" clip-path="url(#clipPath2)"/>
      <path fill="none" d="M312.9811 125 L312.7541 103.0103" clip-path="url(#clipPath2)"/>
      <path d="M312.6715 95.0107 L307.7957 107.0617 L312.7644 104.0103 L317.7951 106.9585 Z" stroke="none" clip-path="url(#clipPath2)"/>
      <path fill="none" d="M539.375 25 L539.375 47" clip-path="url(#clipPath2)"/>
      <path d="M539.375 55 L544.375 43 L539.375 46 L534.375 43 Z" stroke="none" clip-path="url(#clipPath2)"/>
      <path fill="none" d="M102.0312 125 L102.0312 103" clip-path="url(#clipPath2)"/>
      <path d="M102.0312 95 L97.0312 107 L102.0312 104 L107.0312 107 Z" stroke="none" clip-path="url(#clipPath2)"/>
    </g>
  </g>
</svg>
