<?xml version="1.0" encoding="UTF-8"?><svg xmlns="http://www.w3.org/2000/svg" xmlns:xlink="http://www.w3.org/1999/xlink" fill-opacity="1" color-rendering="auto" color-interpolation="auto" text-rendering="auto" stroke="black" stroke-linecap="square" width="963" stroke-miterlimit="10" shape-rendering="auto" stroke-opacity="1" fill="black" stroke-dasharray="none" font-weight="normal" stroke-width="1" height="397" font-family="'Dialog'" font-style="normal" stroke-linejoin="miter" font-size="12px" stroke-dashoffset="0" image-rendering="auto">
  <!--Generated by ySVG 2.6-->
  <defs id="genericDefs"/>
  <g>
    <defs id="defs1">
      <clipPath clipPathUnits="userSpaceOnUse" id="clipPath1">
        <path d="M0 0 L963 0 L963 397 L0 397 L0 0 Z"/>
      </clipPath>
      <clipPath clipPathUnits="userSpaceOnUse" id="clipPath2">
        <path d="M171 78 L1134 78 L1134 475 L171 475 L171 78 Z"/>
      </clipPath>
    </defs>
    <g fill="white" text-rendering="geometricPrecision" shape-rendering="geometricPrecision" transform="translate(-171,-78)" stroke="white">
      <rect x="171" width="963" height="397" y="78" clip-path="url(#clipPath2)" stroke="none"/>
    </g>
    <g text-rendering="geometricPrecision" stroke-miterlimit="1.45" shape-rendering="geometricPrecision" transform="matrix(1,0,0,1,-171,-78)" stroke-linecap="butt">
      <rect fill="none" x="186" width="412.875" height="367" y="93" clip-path="url(#clipPath2)"/>
      <text x="299.5507" font-size="16px" y="111.8798" clip-path="url(#clipPath2)" font-family="'Lato'" stroke="none" xml:space="preserve">Apptainer container image</text>
    </g>
    <g fill="rgb(231,242,250)" text-rendering="geometricPrecision" shape-rendering="geometricPrecision" transform="matrix(1,0,0,1,-171,-78)" stroke="rgb(231,242,250)">
      <rect x="212" width="320.875" height="267" y="122" clip-path="url(#clipPath2)" stroke="none"/>
    </g>
    <g font-size="16px" stroke-linecap="butt" transform="matrix(1,0,0,1,-171,-78)" text-rendering="geometricPrecision" font-family="'Lato'" shape-rendering="geometricPrecision" stroke-miterlimit="1.45">
      <text x="332.694" xml:space="preserve" y="140.8798" clip-path="url(#clipPath2)" stroke="none">Base image</text>
    </g>
    <g fill="rgb(153,204,255)" text-rendering="geometricPrecision" shape-rendering="geometricPrecision" transform="matrix(1,0,0,1,-171,-78)" stroke="rgb(153,204,255)">
      <rect x="243" width="127.875" height="120" y="158.5" clip-path="url(#clipPath2)" stroke="none"/>
    </g>
    <g font-size="16px" stroke-linecap="butt" transform="matrix(1,0,0,1,-171,-78)" text-rendering="geometricPrecision" font-family="'Lato'" shape-rendering="geometricPrecision" stroke-miterlimit="1.45">
      <text x="267.162" xml:space="preserve" y="207.3801" clip-path="url(#clipPath2)" stroke="none">Application</text>
      <text x="268.706" xml:space="preserve" y="223.3799" clip-path="url(#clipPath2)" stroke="none">installation</text>
      <text x="297.6576" xml:space="preserve" y="239.3797" clip-path="url(#clipPath2)" stroke="none">#1</text>
    </g>
    <g fill="rgb(204,153,255)" text-rendering="geometricPrecision" shape-rendering="geometricPrecision" transform="matrix(1,0,0,1,-171,-78)" stroke="rgb(204,153,255)">
      <rect x="326.875" width="245.875" height="195" y="243.5" clip-path="url(#clipPath2)" stroke="none"/>
    </g>
    <g font-size="16px" stroke-linecap="butt" transform="matrix(1,0,0,1,-171,-78)" text-rendering="geometricPrecision" font-family="'Lato'" shape-rendering="geometricPrecision" stroke-miterlimit="1.45">
      <text x="410.037" xml:space="preserve" y="337.88" clip-path="url(#clipPath2)" stroke="none">Application</text>
      <text x="400.2531" xml:space="preserve" y="353.8798" clip-path="url(#clipPath2)" stroke="none">installation #2</text>
      <rect fill="none" x="706" width="412.875" height="367" y="93" clip-path="url(#clipPath2)"/>
      <text x="819.5507" xml:space="preserve" y="111.8798" clip-path="url(#clipPath2)" stroke="none">Apptainer container image</text>
    </g>
    <g fill="rgb(231,242,250)" text-rendering="geometricPrecision" shape-rendering="geometricPrecision" transform="matrix(1,0,0,1,-171,-78)" stroke="rgb(231,242,250)">
      <rect x="732" width="320.875" height="267" y="122" clip-path="url(#clipPath2)" stroke="none"/>
    </g>
    <g font-size="16px" stroke-linecap="butt" transform="matrix(1,0,0,1,-171,-78)" text-rendering="geometricPrecision" font-family="'Lato'" shape-rendering="geometricPrecision" stroke-miterlimit="1.45">
      <text x="852.694" xml:space="preserve" y="140.8798" clip-path="url(#clipPath2)" stroke="none">Base image</text>
    </g>
    <g fill="rgb(153,204,255)" text-rendering="geometricPrecision" shape-rendering="geometricPrecision" transform="matrix(1,0,0,1,-171,-78)" stroke="rgb(153,204,255)">
      <rect x="763" width="127.875" height="120" y="158.5" clip-path="url(#clipPath2)" stroke="none"/>
    </g>
    <g font-size="16px" stroke-linecap="butt" transform="matrix(1,0,0,1,-171,-78)" text-rendering="geometricPrecision" font-family="'Lato'" shape-rendering="geometricPrecision" stroke-miterlimit="1.45">
      <text x="787.162" xml:space="preserve" y="207.3801" clip-path="url(#clipPath2)" stroke="none">Application</text>
      <text x="788.706" xml:space="preserve" y="223.3799" clip-path="url(#clipPath2)" stroke="none">installation</text>
      <text x="817.6576" xml:space="preserve" y="239.3797" clip-path="url(#clipPath2)" stroke="none">#1</text>
    </g>
    <g fill="rgb(204,153,255)" text-rendering="geometricPrecision" shape-rendering="geometricPrecision" transform="matrix(1,0,0,1,-171,-78)" stroke="rgb(204,153,255)">
      <rect x="846.875" width="245.875" height="195" y="243.5" clip-path="url(#clipPath2)" stroke="none"/>
    </g>
    <g font-size="16px" stroke-linecap="butt" transform="matrix(1,0,0,1,-171,-78)" text-rendering="geometricPrecision" font-family="'Lato'" shape-rendering="geometricPrecision" stroke-miterlimit="1.45">
      <text x="930.037" xml:space="preserve" y="337.88" clip-path="url(#clipPath2)" stroke="none">Application</text>
      <text x="920.2531" xml:space="preserve" y="353.8798" clip-path="url(#clipPath2)" stroke="none">installation #2</text>
      <text x="649.5125" xml:space="preserve" font-size="20px" y="292.6" clip-path="url(#clipPath2)" stroke="none">=</text>
    </g>
  </g>
</svg>
