<?xml version="1.0" encoding="UTF-8"?><svg xmlns="http://www.w3.org/2000/svg" xmlns:xlink="http://www.w3.org/1999/xlink" fill-opacity="1" color-rendering="auto" color-interpolation="auto" text-rendering="auto" stroke="black" stroke-linecap="square" width="1374" stroke-miterlimit="10" shape-rendering="auto" stroke-opacity="1" fill="black" stroke-dasharray="none" font-weight="normal" stroke-width="1" height="397" font-family="'Dialog'" font-style="normal" stroke-linejoin="miter" font-size="12px" stroke-dashoffset="0" image-rendering="auto">
  <!--Generated by ySVG 2.6-->
  <defs id="genericDefs"/>
  <g>
    <defs id="defs1">
      <clipPath clipPathUnits="userSpaceOnUse" id="clipPath1">
        <path d="M0 0 L1374 0 L1374 397 L0 397 L0 0 Z"/>
      </clipPath>
      <clipPath clipPathUnits="userSpaceOnUse" id="clipPath2">
        <path d="M171 78 L1545 78 L1545 475 L171 475 L171 78 Z"/>
      </clipPath>
    </defs>
    <g fill="white" text-rendering="geometricPrecision" shape-rendering="geometricPrecision" transform="translate(-171,-78)" stroke="white">
      <rect x="171" width="1374" height="397" y="78" clip-path="url(#clipPath2)" stroke="none"/>
    </g>
    <g text-rendering="geometricPrecision" stroke-miterlimit="1.45" shape-rendering="geometricPrecision" transform="matrix(1,0,0,1,-171,-78)" stroke-linecap="butt">
      <rect fill="none" x="186" width="412.875" height="367" y="93" clip-path="url(#clipPath2)"/>
      <text x="296.6347" font-size="16px" y="111.8798" clip-path="url(#clipPath2)" font-family="'Lato'" stroke="none" xml:space="preserve">Traditional container image</text>
    </g>
    <g fill="rgb(231,242,250)" text-rendering="geometricPrecision" shape-rendering="geometricPrecision" transform="matrix(1,0,0,1,-171,-78)" stroke="rgb(231,242,250)">
      <rect x="212" width="320.875" height="267" y="122" clip-path="url(#clipPath2)" stroke="none"/>
    </g>
    <g text-rendering="geometricPrecision" stroke-miterlimit="1.45" shape-rendering="geometricPrecision" transform="matrix(1,0,0,1,-171,-78)" stroke-linecap="butt">
      <rect fill="none" x="212" width="320.875" height="267" y="122" clip-path="url(#clipPath2)"/>
      <text x="332.694" font-size="16px" y="140.8798" clip-path="url(#clipPath2)" font-family="'Lato'" stroke="none" xml:space="preserve">Base image</text>
    </g>
    <g fill="rgb(153,204,255)" text-rendering="geometricPrecision" shape-rendering="geometricPrecision" transform="matrix(1,0,0,1,-171,-78)" stroke="rgb(153,204,255)">
      <rect x="243" width="127.875" height="120" y="158.5" clip-path="url(#clipPath2)" stroke="none"/>
    </g>
    <g text-rendering="geometricPrecision" stroke-miterlimit="1.45" shape-rendering="geometricPrecision" transform="matrix(1,0,0,1,-171,-78)" stroke-linecap="butt">
      <rect fill="none" x="243" width="127.875" height="120" y="158.5" clip-path="url(#clipPath2)"/>
      <text x="267.162" font-size="16px" y="207.3801" clip-path="url(#clipPath2)" font-family="'Lato'" stroke="none" xml:space="preserve">Application</text>
      <text x="268.706" font-size="16px" y="223.3799" clip-path="url(#clipPath2)" font-family="'Lato'" stroke="none" xml:space="preserve">installation</text>
      <text x="297.6576" font-size="16px" y="239.3797" clip-path="url(#clipPath2)" font-family="'Lato'" stroke="none" xml:space="preserve">#1</text>
    </g>
    <g fill="rgb(204,153,255)" text-rendering="geometricPrecision" shape-rendering="geometricPrecision" transform="matrix(1,0,0,1,-171,-78)" stroke="rgb(204,153,255)">
      <rect x="326.875" width="245.875" height="195" y="243.5" clip-path="url(#clipPath2)" stroke="none"/>
    </g>
    <g text-rendering="geometricPrecision" stroke-miterlimit="1.45" shape-rendering="geometricPrecision" transform="matrix(1,0,0,1,-171,-78)" stroke-linecap="butt">
      <rect fill="none" x="326.875" width="245.875" height="195" y="243.5" clip-path="url(#clipPath2)"/>
      <text x="410.037" font-size="16px" y="337.88" clip-path="url(#clipPath2)" font-family="'Lato'" stroke="none" xml:space="preserve">Application</text>
      <text x="400.2531" font-size="16px" y="353.8798" clip-path="url(#clipPath2)" font-family="'Lato'" stroke="none" xml:space="preserve">installation #2</text>
    </g>
    <g fill="rgb(231,242,250)" text-rendering="geometricPrecision" shape-rendering="geometricPrecision" transform="matrix(1,0,0,1,-171,-78)" stroke="rgb(231,242,250)">
      <rect x="681.875" width="320.875" height="267" y="127.5" clip-path="url(#clipPath2)" stroke="none"/>
    </g>
    <g text-rendering="geometricPrecision" stroke-miterlimit="1.45" shape-rendering="geometricPrecision" transform="matrix(1,0,0,1,-171,-78)" stroke-linecap="butt">
      <rect fill="none" x="681.875" width="320.875" height="267" y="127.5" clip-path="url(#clipPath2)"/>
      <text x="802.569" font-size="16px" y="146.3798" clip-path="url(#clipPath2)" font-family="'Lato'" stroke="none" xml:space="preserve">Base image</text>
      <text x="634.575" font-size="20px" y="267.1" clip-path="url(#clipPath2)" font-family="'Lato'" stroke="none" xml:space="preserve">=</text>
    </g>
    <g fill="rgb(153,204,255)" text-rendering="geometricPrecision" shape-rendering="geometricPrecision" transform="matrix(1,0,0,1,-171,-78)" stroke="rgb(153,204,255)">
      <rect x="1079.375" width="127.875" height="120" y="202" clip-path="url(#clipPath2)" stroke="none"/>
    </g>
    <g text-rendering="geometricPrecision" stroke-miterlimit="1.45" shape-rendering="geometricPrecision" transform="matrix(1,0,0,1,-171,-78)" stroke-linecap="butt">
      <rect fill="none" x="1079.375" width="127.875" height="120" y="202" clip-path="url(#clipPath2)"/>
      <text x="1103.537" font-size="16px" y="250.8801" clip-path="url(#clipPath2)" font-family="'Lato'" stroke="none" xml:space="preserve">Application</text>
      <text x="1105.0809" font-size="16px" y="266.8799" clip-path="url(#clipPath2)" font-family="'Lato'" stroke="none" xml:space="preserve">installation</text>
      <text x="1134.0326" font-size="16px" y="282.8797" clip-path="url(#clipPath2)" font-family="'Lato'" stroke="none" xml:space="preserve">#1</text>
      <text x="1038.45" font-size="20px" y="268.1" clip-path="url(#clipPath2)" font-family="'Lato'" stroke="none" xml:space="preserve">+</text>
    </g>
    <g fill="rgb(204,153,255)" text-rendering="geometricPrecision" shape-rendering="geometricPrecision" transform="matrix(1,0,0,1,-171,-78)" stroke="rgb(204,153,255)">
      <rect x="1283.875" width="245.875" height="195" y="165" clip-path="url(#clipPath2)" stroke="none"/>
    </g>
    <g text-rendering="geometricPrecision" stroke-miterlimit="1.45" shape-rendering="geometricPrecision" transform="matrix(1,0,0,1,-171,-78)" stroke-linecap="butt">
      <rect fill="none" x="1283.875" width="245.875" height="195" y="165" clip-path="url(#clipPath2)"/>
      <text x="1367.037" font-size="16px" y="259.38" clip-path="url(#clipPath2)" font-family="'Lato'" stroke="none" xml:space="preserve">Application</text>
      <text x="1357.2532" font-size="16px" y="275.3798" clip-path="url(#clipPath2)" font-family="'Lato'" stroke="none" xml:space="preserve">installation #2</text>
      <text x="1239.7625" font-size="20px" y="268.1" clip-path="url(#clipPath2)" font-family="'Lato'" stroke="none" xml:space="preserve">+</text>
    </g>
  </g>
</svg>
