<?xml version="1.0" encoding="UTF-8"?><svg xmlns="http://www.w3.org/2000/svg" xmlns:xlink="http://www.w3.org/1999/xlink" fill-opacity="1" color-rendering="auto" color-interpolation="auto" text-rendering="auto" stroke="black" stroke-linecap="square" width="630" stroke-miterlimit="10" shape-rendering="auto" stroke-opacity="1" fill="black" stroke-dasharray="none" font-weight="normal" stroke-width="1" height="280" font-family="'Dialog'" font-style="normal" stroke-linejoin="miter" font-size="12px" stroke-dashoffset="0" image-rendering="auto">
  <!--Generated by ySVG 2.6-->
  <defs id="genericDefs"/>
  <g>
    <defs id="defs1">
      <clipPath clipPathUnits="userSpaceOnUse" id="clipPath1">
        <path d="M0 0 L630 0 L630 280 L0 280 L0 0 Z"/>
      </clipPath>
      <clipPath clipPathUnits="userSpaceOnUse" id="clipPath2">
        <path d="M2 188 L632 188 L632 468 L2 468 L2 188 Z"/>
      </clipPath>
    </defs>
    <g fill="white" text-rendering="geometricPrecision" shape-rendering="geometricPrecision" transform="translate(-2,-188)" stroke="white">
      <rect x="2" width="630" height="280" y="188" clip-path="url(#clipPath2)" stroke="none"/>
    </g>
    <g fill="rgb(106,176,222)" text-rendering="geometricPrecision" shape-rendering="geometricPrecision" transform="matrix(1,0,0,1,-2,-188)" stroke="rgb(106,176,222)">
      <rect x="17" width="154" height="40" y="203" clip-path="url(#clipPath2)" stroke="none"/>
    </g>
    <g text-rendering="geometricPrecision" stroke-miterlimit="1.45" shape-rendering="geometricPrecision" transform="matrix(1,0,0,1,-2,-188)" stroke-linecap="butt">
      <rect fill="none" x="17" width="154" height="40" y="203" clip-path="url(#clipPath2)"/>
      <text x="36.6207" font-size="16px" y="227.8799" clip-path="url(#clipPath2)" font-family="'Lato'" stroke="none" xml:space="preserve">Home computer</text>
    </g>
    <g fill="rgb(231,242,250)" text-rendering="geometricPrecision" shape-rendering="geometricPrecision" transform="matrix(1,0,0,1,-2,-188)" stroke="rgb(231,242,250)">
      <rect x="17" width="154" height="40" y="273" clip-path="url(#clipPath2)" stroke="none"/>
    </g>
    <g text-rendering="geometricPrecision" stroke-miterlimit="1.45" shape-rendering="geometricPrecision" transform="matrix(1,0,0,1,-2,-188)" stroke-linecap="butt">
      <rect fill="none" x="17" width="154" height="40" y="273" clip-path="url(#clipPath2)"/>
      <text x="36.6207" font-size="16px" y="289.88" clip-path="url(#clipPath2)" font-family="'Lato'" stroke="none" xml:space="preserve">Home computer</text>
      <text x="83.2561" font-size="16px" y="305.8798" clip-path="url(#clipPath2)" font-family="'Lato'" stroke="none" xml:space="preserve">OS</text>
    </g>
    <g fill="rgb(231,242,250)" text-rendering="geometricPrecision" shape-rendering="geometricPrecision" transform="matrix(1,0,0,1,-2,-188)" stroke="rgb(231,242,250)">
      <rect x="17" width="154" height="40" y="343" clip-path="url(#clipPath2)" stroke="none"/>
    </g>
    <g text-rendering="geometricPrecision" stroke-miterlimit="1.45" shape-rendering="geometricPrecision" transform="matrix(1,0,0,1,-2,-188)" stroke-linecap="butt">
      <rect fill="none" x="17" width="154" height="40" y="343" clip-path="url(#clipPath2)"/>
      <text x="54.2245" font-size="16px" y="367.8799" clip-path="url(#clipPath2)" font-family="'Lato'" stroke="none" xml:space="preserve">Application</text>
    </g>
    <g fill="rgb(106,176,222)" text-rendering="geometricPrecision" shape-rendering="geometricPrecision" transform="matrix(1,0,0,1,-2,-188)" stroke="rgb(106,176,222)">
      <rect x="463" width="154" height="40" y="203" clip-path="url(#clipPath2)" stroke="none"/>
    </g>
    <g text-rendering="geometricPrecision" stroke-miterlimit="1.45" shape-rendering="geometricPrecision" transform="matrix(1,0,0,1,-2,-188)" stroke-linecap="butt">
      <rect fill="none" x="463" width="154" height="40" y="203" clip-path="url(#clipPath2)"/>
      <text x="498.0605" font-size="16px" y="227.8799" clip-path="url(#clipPath2)" font-family="'Lato'" stroke="none" xml:space="preserve">HPC cluster</text>
    </g>
    <g fill="rgb(231,242,250)" text-rendering="geometricPrecision" shape-rendering="geometricPrecision" transform="matrix(1,0,0,1,-2,-188)" stroke="rgb(231,242,250)">
      <rect x="463" width="154" height="40" y="273" clip-path="url(#clipPath2)" stroke="none"/>
    </g>
    <g text-rendering="geometricPrecision" stroke-miterlimit="1.45" shape-rendering="geometricPrecision" transform="matrix(1,0,0,1,-2,-188)" stroke-linecap="butt">
      <rect fill="none" x="463" width="154" height="40" y="273" clip-path="url(#clipPath2)"/>
      <text x="485.2687" font-size="16px" y="297.8799" clip-path="url(#clipPath2)" font-family="'Lato'" stroke="none" xml:space="preserve">HPC cluster OS</text>
    </g>
    <g fill="rgb(231,242,250)" text-rendering="geometricPrecision" shape-rendering="geometricPrecision" transform="matrix(1,0,0,1,-2,-188)" stroke="rgb(231,242,250)">
      <rect x="463" width="154" height="40" y="343" clip-path="url(#clipPath2)" stroke="none"/>
    </g>
    <g text-rendering="geometricPrecision" stroke-miterlimit="1.45" shape-rendering="geometricPrecision" transform="matrix(1,0,0,1,-2,-188)" stroke-linecap="butt">
      <rect fill="none" x="463" width="154" height="40" y="343" clip-path="url(#clipPath2)"/>
      <text x="500.2245" font-size="16px" y="367.8799" clip-path="url(#clipPath2)" font-family="'Lato'" stroke="none" xml:space="preserve">Application</text>
      <text x="201.0095" font-size="14px" y="437.27" clip-path="url(#clipPath2)" font-family="'Lato'" stroke="none" xml:space="preserve">applications are not exactly the same</text>
      <text x="308.64" font-size="20px" y="369.1" clip-path="url(#clipPath2)" font-family="'Lato'" stroke="none" xml:space="preserve">≠ </text>
      <text x="213.3934" font-size="14px" y="227.27" clip-path="url(#clipPath2)" font-family="'Lato'" stroke="none" xml:space="preserve">Because operating  systems differ</text>
      <text x="311.2" font-size="20px" y="299.1" clip-path="url(#clipPath2)" font-family="'Lato'" stroke="none" xml:space="preserve">≠</text>
      <path fill="none" stroke-dasharray="12,4" d="M94 243 L94 273" stroke-width="2" clip-path="url(#clipPath2)"/>
      <path fill="none" stroke-dasharray="12,4" d="M94 313 L94 343" stroke-width="2" clip-path="url(#clipPath2)"/>
      <path fill="none" stroke-dasharray="12,4" d="M540 243 L540 273" stroke-width="2" clip-path="url(#clipPath2)"/>
      <path fill="none" stroke-dasharray="12,4" d="M540 313 L540 343" stroke-width="2" clip-path="url(#clipPath2)"/>
      <path fill="none" d="M291.5 363 L179 363" clip-path="url(#clipPath2)"/>
      <path d="M171 363 L183 368 L180 363 L183 358 Z" clip-path="url(#clipPath2)" stroke="none"/>
      <path fill="none" d="M342.5 363 L455 363" clip-path="url(#clipPath2)"/>
      <path d="M463 363 L451 358 L454 363 L451 368 Z" clip-path="url(#clipPath2)" stroke="none"/>
      <path fill="none" d="M291.5 293 L179 293" clip-path="url(#clipPath2)"/>
      <path d="M171 293 L183 298 L180 293 L183 288 Z" clip-path="url(#clipPath2)" stroke="none"/>
      <path fill="none" d="M342.5 293 L455 293" clip-path="url(#clipPath2)"/>
      <path d="M463 293 L451 288 L454 293 L451 298 Z" clip-path="url(#clipPath2)" stroke="none"/>
    </g>
  </g>
</svg>
