<?xml version="1.0" encoding="UTF-8"?><svg xmlns="http://www.w3.org/2000/svg" xmlns:xlink="http://www.w3.org/1999/xlink" fill-opacity="1" color-rendering="auto" color-interpolation="auto" text-rendering="auto" stroke="black" stroke-linecap="square" width="381" stroke-miterlimit="10" shape-rendering="auto" stroke-opacity="1" fill="black" stroke-dasharray="none" font-weight="normal" stroke-width="1" height="210" font-family="'Dialog'" font-style="normal" stroke-linejoin="miter" font-size="12px" stroke-dashoffset="0" image-rendering="auto">
  <!--Generated by ySVG 2.6-->
  <defs id="genericDefs"/>
  <g>
    <defs id="defs1">
      <clipPath clipPathUnits="userSpaceOnUse" id="clipPath1">
        <path d="M0 0 L381 0 L381 210 L0 210 L0 0 Z"/>
      </clipPath>
      <clipPath clipPathUnits="userSpaceOnUse" id="clipPath2">
        <path d="M-7 -30 L374 -30 L374 180 L-7 180 L-7 -30 Z"/>
      </clipPath>
    </defs>
    <g fill="white" text-rendering="geometricPrecision" shape-rendering="geometricPrecision" transform="translate(7,30)" stroke="white">
      <rect x="-7" width="381" height="210" y="-30" clip-path="url(#clipPath2)" stroke="none"/>
    </g>
    <g fill="rgb(153,204,255)" text-rendering="geometricPrecision" shape-rendering="geometricPrecision" transform="matrix(1,0,0,1,7,30)" stroke="rgb(153,204,255)">
      <rect x="26" width="128" height="40" y="55" clip-path="url(#clipPath2)" stroke="none"/>
      <rect x="33.9912" y="61.6719" clip-path="url(#clipPath2)" fill="none" width="112.0176" height="26.6562" stroke="black" stroke-miterlimit="1.6"/>
    </g>
    <g font-size="20px" stroke-linecap="butt" transform="matrix(1,0,0,1,7,30)" text-rendering="geometricPrecision" font-family="'Liberation Mono'" shape-rendering="geometricPrecision" stroke-miterlimit="1.45">
      <text x="35.9912" xml:space="preserve" y="80.3223" clip-path="url(#clipPath2)" stroke="none">apptainer</text>
    </g>
    <g fill="rgb(231,242,250)" text-rendering="geometricPrecision" shape-rendering="geometricPrecision" transform="matrix(1,0,0,1,7,30)" stroke="rgb(231,242,250)">
      <rect x="8.5625" width="349.875" height="40" y="-15" clip-path="url(#clipPath2)" stroke="none"/>
    </g>
    <g text-rendering="geometricPrecision" stroke-miterlimit="1.45" shape-rendering="geometricPrecision" transform="matrix(1,0,0,1,7,30)" stroke-linecap="butt">
      <rect fill="none" x="8.5625" width="349.875" height="40" y="-15" clip-path="url(#clipPath2)"/>
      <text x="35.2299" font-size="16px" y="9.8799" clip-path="url(#clipPath2)" font-family="'Lato'" stroke="none" xml:space="preserve">Use run-command to launch the container</text>
    </g>
    <g fill="rgb(255,204,153)" text-rendering="geometricPrecision" shape-rendering="geometricPrecision" transform="matrix(1,0,0,1,7,30)" stroke="rgb(255,204,153)">
      <rect x="158" width="51" height="40" y="55" clip-path="url(#clipPath2)" stroke="none"/>
      <rect x="163.4971" y="61.6719" clip-path="url(#clipPath2)" fill="none" width="40.0059" height="26.6562" stroke="black" stroke-miterlimit="1.6"/>
    </g>
    <g font-size="20px" stroke-linecap="butt" transform="matrix(1,0,0,1,7,30)" text-rendering="geometricPrecision" font-family="'Liberation Mono'" shape-rendering="geometricPrecision" stroke-miterlimit="1.45">
      <text x="165.4971" xml:space="preserve" y="80.3223" clip-path="url(#clipPath2)" stroke="none">run</text>
    </g>
    <g fill="rgb(204,153,255)" text-rendering="geometricPrecision" shape-rendering="geometricPrecision" transform="matrix(1,0,0,1,7,30)" stroke="rgb(204,153,255)">
      <rect x="213" width="135" height="40" y="55" clip-path="url(#clipPath2)" stroke="none"/>
      <rect x="218.4902" y="61.6719" clip-path="url(#clipPath2)" fill="none" width="124.0195" height="26.6562" stroke="black" stroke-miterlimit="1.6"/>
    </g>
    <g font-size="20px" stroke-linecap="butt" transform="matrix(1,0,0,1,7,30)" text-rendering="geometricPrecision" font-family="'Liberation Mono'" shape-rendering="geometricPrecision" stroke-miterlimit="1.45">
      <text x="220.4902" xml:space="preserve" y="80.3223" clip-path="url(#clipPath2)" stroke="none">python.sif</text>
    </g>
    <g fill="rgb(231,242,250)" text-rendering="geometricPrecision" shape-rendering="geometricPrecision" transform="matrix(1,0,0,1,7,30)" stroke="rgb(231,242,250)">
      <rect x="35.5" width="109" height="40" y="125" clip-path="url(#clipPath2)" stroke="none"/>
    </g>
    <g text-rendering="geometricPrecision" stroke-miterlimit="1.45" shape-rendering="geometricPrecision" transform="matrix(1,0,0,1,7,30)" stroke-linecap="butt">
      <rect fill="none" x="35.5" width="109" height="40" y="125" clip-path="url(#clipPath2)"/>
      <text x="41.0726" font-size="16px" y="149.8799" clip-path="url(#clipPath2)" font-family="'Lato'" stroke="none" xml:space="preserve">Use apptainer</text>
    </g>
    <g fill="rgb(231,242,250)" text-rendering="geometricPrecision" shape-rendering="geometricPrecision" transform="matrix(1,0,0,1,7,30)" stroke="rgb(231,242,250)">
      <rect x="207.3125" width="146.375" height="40" y="125" clip-path="url(#clipPath2)" stroke="none"/>
    </g>
    <g text-rendering="geometricPrecision" stroke-miterlimit="1.45" shape-rendering="geometricPrecision" transform="matrix(1,0,0,1,7,30)" stroke-linecap="butt">
      <rect fill="none" x="207.3125" width="146.375" height="40" y="125" clip-path="url(#clipPath2)"/>
      <text x="216.3728" font-size="16px" y="149.8799" clip-path="url(#clipPath2)" font-family="'Lato'" stroke="none" xml:space="preserve">Use this image file</text>
      <path fill="none" d="M183.5 25 L183.5 47" clip-path="url(#clipPath2)"/>
      <path d="M183.5 55 L188.5 43 L183.5 46 L178.5 43 Z" clip-path="url(#clipPath2)" stroke="none"/>
      <path fill="none" d="M90 125 L90 103" clip-path="url(#clipPath2)"/>
      <path d="M90 95 L85 107 L90 104 L95 107 Z" clip-path="url(#clipPath2)" stroke="none"/>
      <path fill="none" d="M280.5 125 L280.5 103" clip-path="url(#clipPath2)"/>
      <path d="M280.5 95 L275.5 107 L280.5 104 L285.5 107 Z" clip-path="url(#clipPath2)" stroke="none"/>
    </g>
  </g>
</svg>
